<svg width="677" height="161" viewBox="0 0 677 161" fill="none" xmlns="http://www.w3.org/2000/svg">
<path d="M68.672 129.408C65.1733 129.408 61.7173 128.939 58.304 128C54.976 127.061 51.904 125.781 49.088 124.16C46.272 122.453 43.84 120.405 41.792 118.016L51.776 107.904C53.9093 110.293 56.384 112.085 59.2 113.28C62.016 114.475 65.1307 115.072 68.544 115.072C71.2747 115.072 73.3227 114.688 74.688 113.92C76.1387 113.152 76.864 112 76.864 110.464C76.864 108.757 76.096 107.435 74.56 106.496C73.1093 105.557 71.1893 104.789 68.8 104.192C66.4107 103.509 63.8933 102.784 61.248 102.016C58.688 101.163 56.2133 100.096 53.824 98.816C51.4347 97.4507 49.472 95.616 47.936 93.312C46.4853 90.9227 45.76 87.8507 45.76 84.096C45.76 80.1707 46.6987 76.7573 48.576 73.856C50.5387 70.9547 53.312 68.6933 56.896 67.072C60.48 65.4507 64.704 64.64 69.568 64.64C74.688 64.64 79.296 65.536 83.392 67.328C87.5733 69.12 91.0293 71.808 93.76 75.392L83.648 85.504C81.7707 83.2 79.6373 81.536 77.248 80.512C74.944 79.488 72.4267 78.976 69.696 78.976C67.2213 78.976 65.3013 79.36 63.936 80.128C62.656 80.896 62.016 81.9627 62.016 83.328C62.016 84.864 62.7413 86.0587 64.192 86.912C65.728 87.7653 67.6907 88.5333 70.08 89.216C72.4693 89.8133 74.944 90.5387 77.504 91.392C80.1493 92.16 82.624 93.2693 84.928 94.72C87.3173 96.1707 89.2373 98.0907 90.688 100.48C92.224 102.869 92.992 105.941 92.992 109.696C92.992 115.755 90.816 120.576 86.464 124.16C82.112 127.659 76.1813 129.408 68.672 129.408ZM133.483 129.28C127.168 129.28 121.494 127.872 116.459 125.056C111.424 122.24 107.456 118.4 104.555 113.536C101.654 108.672 100.203 103.211 100.203 97.152C100.203 91.008 101.654 85.504 104.555 80.64C107.456 75.776 111.424 71.936 116.459 69.12C121.579 66.2187 127.254 64.768 133.483 64.768C138.347 64.768 142.827 65.664 146.923 67.456C151.019 69.248 154.56 71.808 157.547 75.136L146.795 86.016C145.174 84.224 143.211 82.8587 140.907 81.92C138.688 80.9813 136.214 80.512 133.483 80.512C130.411 80.512 127.638 81.2373 125.163 82.688C122.774 84.0533 120.854 85.9733 119.403 88.448C118.038 90.8373 117.355 93.696 117.355 97.024C117.355 100.267 118.038 103.168 119.403 105.728C120.854 108.203 122.774 110.165 125.163 111.616C127.638 112.981 130.411 113.664 133.483 113.664C136.299 113.664 138.816 113.195 141.035 112.256C143.339 111.232 145.302 109.781 146.923 107.904L157.803 118.784C154.646 122.197 151.019 124.8 146.923 126.592C142.827 128.384 138.347 129.28 133.483 129.28ZM194.98 129.28C188.751 129.28 183.119 127.872 178.084 125.056C173.135 122.155 169.167 118.272 166.18 113.408C163.279 108.459 161.828 102.955 161.828 96.896C161.828 90.8373 163.279 85.4187 166.18 80.64C169.081 75.776 173.049 71.936 178.084 69.12C183.119 66.2187 188.708 64.768 194.852 64.768C201.167 64.768 206.799 66.2187 211.748 69.12C216.783 71.936 220.751 75.776 223.652 80.64C226.553 85.4187 228.004 90.8373 228.004 96.896C228.004 102.955 226.553 108.459 223.652 113.408C220.751 118.272 216.783 122.155 211.748 125.056C206.799 127.872 201.209 129.28 194.98 129.28ZM194.852 113.664C198.009 113.664 200.783 112.981 203.172 111.616C205.647 110.165 207.524 108.203 208.804 105.728C210.169 103.168 210.852 100.267 210.852 97.024C210.852 93.7813 210.169 90.9227 208.804 88.448C207.439 85.9733 205.561 84.0533 203.172 82.688C200.783 81.2373 198.009 80.512 194.852 80.512C191.78 80.512 189.049 81.2373 186.66 82.688C184.271 84.0533 182.393 85.9733 181.028 88.448C179.663 90.9227 178.98 93.7813 178.98 97.024C178.98 100.267 179.663 103.168 181.028 105.728C182.393 108.203 184.271 110.165 186.66 111.616C189.049 112.981 191.78 113.664 194.852 113.664ZM238.799 128V66.176H255.567V128H238.799ZM255.567 93.824L249.039 89.472C249.807 81.8773 252.026 75.904 255.695 71.552C259.364 67.1147 264.655 64.896 271.567 64.896C274.554 64.896 277.242 65.408 279.631 66.432C282.02 67.3707 284.196 68.9493 286.159 71.168L275.663 83.2C274.724 82.176 273.572 81.408 272.207 80.896C270.927 80.384 269.434 80.128 267.727 80.128C264.143 80.128 261.199 81.28 258.895 83.584C256.676 85.8027 255.567 89.216 255.567 93.824ZM319.867 129.28C313.382 129.28 307.622 127.915 302.587 125.184C297.552 122.368 293.542 118.528 290.555 113.664C287.654 108.8 286.203 103.253 286.203 97.024C286.203 90.88 287.611 85.4187 290.427 80.64C293.328 75.776 297.254 71.936 302.203 69.12C307.152 66.2187 312.656 64.768 318.715 64.768C324.688 64.768 329.936 66.1333 334.459 68.864C339.067 71.5093 342.651 75.1787 345.211 79.872C347.856 84.48 349.179 89.728 349.179 95.616C349.179 96.7253 349.094 97.8773 348.923 99.072C348.838 100.181 348.624 101.461 348.283 102.912L296.315 103.04V90.496L340.475 90.368L333.691 95.616C333.52 91.9467 332.838 88.8747 331.643 86.4C330.534 83.9253 328.87 82.048 326.651 80.768C324.518 79.4027 321.872 78.72 318.715 78.72C315.387 78.72 312.486 79.488 310.011 81.024C307.536 82.4747 305.616 84.5653 304.251 87.296C302.971 89.9413 302.331 93.0987 302.331 96.768C302.331 100.523 303.014 103.808 304.379 106.624C305.83 109.355 307.878 111.488 310.523 113.024C313.168 114.475 316.24 115.2 319.739 115.2C322.896 115.2 325.755 114.688 328.315 113.664C330.875 112.555 333.094 110.933 334.971 108.8L344.827 118.656C341.84 122.155 338.171 124.8 333.819 126.592C329.552 128.384 324.902 129.28 319.867 129.28ZM380.797 129.408C377.298 129.408 373.842 128.939 370.429 128C367.101 127.061 364.029 125.781 361.213 124.16C358.397 122.453 355.965 120.405 353.917 118.016L363.901 107.904C366.034 110.293 368.509 112.085 371.325 113.28C374.141 114.475 377.256 115.072 380.669 115.072C383.4 115.072 385.448 114.688 386.813 113.92C388.264 113.152 388.989 112 388.989 110.464C388.989 108.757 388.221 107.435 386.685 106.496C385.234 105.557 383.314 104.789 380.925 104.192C378.536 103.509 376.018 102.784 373.373 102.016C370.813 101.163 368.338 100.096 365.949 98.816C363.56 97.4507 361.597 95.616 360.061 93.312C358.61 90.9227 357.885 87.8507 357.885 84.096C357.885 80.1707 358.824 76.7573 360.701 73.856C362.664 70.9547 365.437 68.6933 369.021 67.072C372.605 65.4507 376.829 64.64 381.693 64.64C386.813 64.64 391.421 65.536 395.517 67.328C399.698 69.12 403.154 71.808 405.885 75.392L395.773 85.504C393.896 83.2 391.762 81.536 389.373 80.512C387.069 79.488 384.552 78.976 381.821 78.976C379.346 78.976 377.426 79.36 376.061 80.128C374.781 80.896 374.141 81.9627 374.141 83.328C374.141 84.864 374.866 86.0587 376.317 86.912C377.853 87.7653 379.816 88.5333 382.205 89.216C384.594 89.8133 387.069 90.5387 389.629 91.392C392.274 92.16 394.749 93.2693 397.053 94.72C399.442 96.1707 401.362 98.0907 402.813 100.48C404.349 102.869 405.117 105.941 405.117 109.696C405.117 115.755 402.941 120.576 398.589 124.16C394.237 127.659 388.306 129.408 380.797 129.408ZM445.992 129.28C439.507 129.28 433.747 127.915 428.712 125.184C423.677 122.368 419.667 118.528 416.68 113.664C413.779 108.8 412.328 103.253 412.328 97.024C412.328 90.88 413.736 85.4187 416.552 80.64C419.453 75.776 423.379 71.936 428.328 69.12C433.277 66.2187 438.781 64.768 444.84 64.768C450.813 64.768 456.061 66.1333 460.584 68.864C465.192 71.5093 468.776 75.1787 471.336 79.872C473.981 84.48 475.304 89.728 475.304 95.616C475.304 96.7253 475.219 97.8773 475.048 99.072C474.963 100.181 474.749 101.461 474.408 102.912L422.44 103.04V90.496L466.6 90.368L459.816 95.616C459.645 91.9467 458.963 88.8747 457.768 86.4C456.659 83.9253 454.995 82.048 452.776 80.768C450.643 79.4027 447.997 78.72 444.84 78.72C441.512 78.72 438.611 79.488 436.136 81.024C433.661 82.4747 431.741 84.5653 430.376 87.296C429.096 89.9413 428.456 93.0987 428.456 96.768C428.456 100.523 429.139 103.808 430.504 106.624C431.955 109.355 434.003 111.488 436.648 113.024C439.293 114.475 442.365 115.2 445.864 115.2C449.021 115.2 451.88 114.688 454.44 113.664C457 112.555 459.219 110.933 461.096 108.8L470.952 118.656C467.965 122.155 464.296 124.8 459.944 126.592C455.677 128.384 451.027 129.28 445.992 129.28ZM527.274 128V92.544C527.274 88.8747 526.122 85.888 523.818 83.584C521.514 81.28 518.527 80.128 514.858 80.128C512.469 80.128 510.335 80.64 508.458 81.664C506.581 82.688 505.087 84.1387 503.978 86.016C502.954 87.8933 502.442 90.0693 502.442 92.544L495.914 89.216C495.914 84.352 496.938 80.128 498.986 76.544C501.119 72.8747 504.021 70.016 507.69 67.968C511.445 65.92 515.669 64.896 520.362 64.896C524.885 64.896 528.938 66.048 532.522 68.352C536.106 70.5707 538.922 73.5147 540.97 77.184C543.018 80.768 544.042 84.6507 544.042 88.832V128H527.274ZM485.674 128V66.176H502.442V128H485.674ZM578.797 129.408C575.298 129.408 571.842 128.939 568.429 128C565.101 127.061 562.029 125.781 559.213 124.16C556.397 122.453 553.965 120.405 551.917 118.016L561.901 107.904C564.034 110.293 566.509 112.085 569.325 113.28C572.141 114.475 575.256 115.072 578.669 115.072C581.4 115.072 583.448 114.688 584.813 113.92C586.264 113.152 586.989 112 586.989 110.464C586.989 108.757 586.221 107.435 584.685 106.496C583.234 105.557 581.314 104.789 578.925 104.192C576.536 103.509 574.018 102.784 571.373 102.016C568.813 101.163 566.338 100.096 563.949 98.816C561.56 97.4507 559.597 95.616 558.061 93.312C556.61 90.9227 555.885 87.8507 555.885 84.096C555.885 80.1707 556.824 76.7573 558.701 73.856C560.664 70.9547 563.437 68.6933 567.021 67.072C570.605 65.4507 574.829 64.64 579.693 64.64C584.813 64.64 589.421 65.536 593.517 67.328C597.698 69.12 601.154 71.808 603.885 75.392L593.773 85.504C591.896 83.2 589.762 81.536 587.373 80.512C585.069 79.488 582.552 78.976 579.821 78.976C577.346 78.976 575.426 79.36 574.061 80.128C572.781 80.896 572.141 81.9627 572.141 83.328C572.141 84.864 572.866 86.0587 574.317 86.912C575.853 87.7653 577.816 88.5333 580.205 89.216C582.594 89.8133 585.069 90.5387 587.629 91.392C590.274 92.16 592.749 93.2693 595.053 94.72C597.442 96.1707 599.362 98.0907 600.813 100.48C602.349 102.869 603.117 105.941 603.117 109.696C603.117 115.755 600.941 120.576 596.589 124.16C592.237 127.659 586.306 129.408 578.797 129.408ZM643.992 129.28C637.507 129.28 631.747 127.915 626.712 125.184C621.677 122.368 617.667 118.528 614.68 113.664C611.779 108.8 610.328 103.253 610.328 97.024C610.328 90.88 611.736 85.4187 614.552 80.64C617.453 75.776 621.379 71.936 626.328 69.12C631.277 66.2187 636.781 64.768 642.84 64.768C648.813 64.768 654.061 66.1333 658.584 68.864C663.192 71.5093 666.776 75.1787 669.336 79.872C671.981 84.48 673.304 89.728 673.304 95.616C673.304 96.7253 673.219 97.8773 673.048 99.072C672.963 100.181 672.749 101.461 672.408 102.912L620.44 103.04V90.496L664.6 90.368L657.816 95.616C657.645 91.9467 656.963 88.8747 655.768 86.4C654.659 83.9253 652.995 82.048 650.776 80.768C648.643 79.4027 645.997 78.72 642.84 78.72C639.512 78.72 636.611 79.488 634.136 81.024C631.661 82.4747 629.741 84.5653 628.376 87.296C627.096 89.9413 626.456 93.0987 626.456 96.768C626.456 100.523 627.139 103.808 628.504 106.624C629.955 109.355 632.003 111.488 634.648 113.024C637.293 114.475 640.365 115.2 643.864 115.2C647.021 115.2 649.88 114.688 652.44 113.664C655 112.555 657.219 110.933 659.096 108.8L668.952 118.656C665.965 122.155 662.296 124.8 657.944 126.592C653.677 128.384 649.027 129.28 643.992 129.28Z" fill="white"/>
<circle cx="15" cy="96" r="15" fill="#FF3131"/>
</svg>
